<svg width="564" height="135" viewBox="0 0 564 135" fill="none" xmlns="http://www.w3.org/2000/svg">
<rect width="563.75" height="135" rx="7.5" fill="white"/>
<path d="M37.6193 57.7912L67.5 36.0816L97.3807 57.7912L85.9673 92.9181H49.0327L37.6193 57.7912Z" stroke="#31A05F" stroke-width="1.75"/>
<path d="M138.594 37.3594V51.5H136.445V37.3594H138.594ZM143.379 45.2109V51.5H141.289V40.8945H143.301V42.6328H143.418C143.926 41.5 144.961 40.7578 146.543 40.7578C148.73 40.7578 150.156 42.125 150.156 44.7617V51.5H148.086V45.0156C148.086 43.4727 147.246 42.5547 145.84 42.5547C144.414 42.5547 143.379 43.5117 143.379 45.2109ZM161.406 40.8945L157.559 51.5H155.312L151.465 40.8945H153.711L156.387 49.0391H156.484L159.16 40.8945H161.406ZM167.305 51.7148C164.18 51.7148 162.266 49.5664 162.266 46.2656C162.266 43.0039 164.219 40.7578 167.168 40.7578C169.59 40.7578 171.875 42.2617 171.875 46.0898V46.832H164.336C164.395 48.8438 165.576 49.9961 167.324 49.9961C168.516 49.9961 169.277 49.4883 169.629 48.8438H171.738C171.27 50.5625 169.629 51.7148 167.305 51.7148ZM164.355 45.2695H169.824C169.824 43.6484 168.789 42.4766 167.188 42.4766C165.518 42.4766 164.434 43.7656 164.355 45.2695ZM179.902 43.7852C179.707 42.9453 179.043 42.3984 177.891 42.3984C176.699 42.3984 175.84 43.0234 175.859 43.8242C175.84 44.4492 176.348 44.8984 177.52 45.1719L179.199 45.5625C181.152 45.9922 182.09 46.9297 182.109 48.4336C182.09 50.3477 180.488 51.7148 177.773 51.7148C175.234 51.7148 173.711 50.582 173.457 48.6094H175.586C175.762 49.5664 176.504 50.0352 177.754 50.0352C179.102 50.0352 179.961 49.4883 179.98 48.5898C179.961 47.9062 179.453 47.457 178.34 47.2031L176.68 46.8516C174.766 46.4219 173.77 45.4062 173.77 43.9414C173.77 42.0469 175.41 40.7578 177.871 40.7578C180.234 40.7578 181.699 41.9688 181.914 43.7852H179.902ZM189.102 40.8945V42.5547H186.934V48.375C186.934 49.5664 187.539 49.7812 188.203 49.8008C188.496 49.8008 188.965 49.7617 189.258 49.7422V51.5586C188.965 51.5977 188.516 51.6367 187.949 51.6367C186.309 51.6367 184.844 50.7383 184.863 48.8047V42.5547H183.301V40.8945H184.863V38.3555H186.934V40.8945H189.102ZM195.508 51.7148C192.5 51.7148 190.547 49.5273 190.547 46.2461C190.547 42.9453 192.5 40.7578 195.508 40.7578C198.496 40.7578 200.449 42.9453 200.449 46.2461C200.449 49.5273 198.496 51.7148 195.508 51.7148ZM195.508 49.9766C197.422 49.9766 198.34 48.2773 198.34 46.2461C198.34 44.2148 197.422 42.4766 195.508 42.4766C193.555 42.4766 192.637 44.2148 192.637 46.2461C192.637 48.2773 193.555 49.9766 195.508 49.9766ZM202.5 51.5V40.8945H204.512V42.5742H204.629C205.02 41.4414 206.074 40.7383 207.324 40.7383C207.578 40.7383 207.988 40.7578 208.203 40.7773V42.7695C208.027 42.7305 207.539 42.6523 207.109 42.6523C205.664 42.6523 204.59 43.6484 204.59 45.0352V51.5H202.5Z" fill="black"/>
<path d="M136.367 78.25V65.877H143.87V67.2441H137.905V71.3799H143.477V72.73H137.905V76.8828H143.955V78.25H136.367ZM147.219 68.9702L149.407 72.7471L151.611 68.9702H153.303L150.312 73.6016L153.303 78.25H151.628L149.407 74.6611L147.219 78.25H145.527L148.45 73.6016L145.527 68.9702H147.219ZM155.081 81.7363V68.9702H156.499V70.4399H156.67C156.978 69.9443 157.559 68.8506 159.353 68.8506C161.677 68.8506 163.301 70.6963 163.301 73.6357C163.301 76.5752 161.677 78.438 159.37 78.438C157.593 78.438 156.978 77.3442 156.67 76.8315H156.55V81.7363H155.081ZM156.516 73.6016C156.516 75.6865 157.456 77.1221 159.165 77.1221C160.925 77.1221 161.831 75.584 161.831 73.6016C161.831 71.6704 160.942 70.1665 159.165 70.1665C157.422 70.1665 156.516 71.5508 156.516 73.6016ZM166.685 65.877V78.25H165.215V65.877H166.685ZM172.82 78.438C170.291 78.438 168.582 76.541 168.582 73.6528C168.582 70.7646 170.291 68.8506 172.82 68.8506C175.332 68.8506 177.024 70.7646 177.024 73.6528C177.024 76.541 175.332 78.438 172.82 78.438ZM172.82 77.1392C174.683 77.1392 175.554 75.4985 175.554 73.6528C175.554 71.8071 174.683 70.1494 172.82 70.1494C170.923 70.1494 170.051 71.8071 170.051 73.6528C170.051 75.4985 170.923 77.1392 172.82 77.1392ZM178.955 78.25V68.9702H180.374V70.3887H180.476C180.818 69.4487 181.775 68.8164 182.869 68.8164C183.091 68.8164 183.467 68.8335 183.638 68.8506V70.3374C183.535 70.3032 183.125 70.2349 182.749 70.2349C181.416 70.2349 180.425 71.1577 180.425 72.4053V78.25H178.955ZM188.662 78.438C185.979 78.438 184.321 76.541 184.321 73.687C184.321 70.833 185.996 68.8506 188.525 68.8506C190.474 68.8506 192.524 70.0469 192.524 73.4819V74.0972H185.791C185.859 76.0625 187.004 77.1392 188.662 77.1392C189.773 77.1392 190.474 76.6606 190.815 76.0796H192.388C191.943 77.481 190.576 78.438 188.662 78.438ZM185.808 72.8496H191.038C191.038 71.2944 190.046 70.1494 188.525 70.1494C186.919 70.1494 185.894 71.4141 185.808 72.8496ZM198.831 78.25V68.9702H200.249V70.3887H200.352C200.693 69.4487 201.65 68.8164 202.744 68.8164C202.966 68.8164 203.342 68.8335 203.513 68.8506V70.3374C203.411 70.3032 203 70.2349 202.625 70.2349C201.292 70.2349 200.3 71.1577 200.3 72.4053V78.25H198.831ZM204.487 75.6182C204.487 73.4819 206.367 73.0034 207.974 72.8838C208.563 72.8411 210.067 72.7642 210.486 72.7471V71.9951C210.486 70.8159 209.785 70.1323 208.384 70.1323C207.205 70.1323 206.504 70.6792 206.299 71.3799H204.761C204.949 69.8931 206.401 68.8506 208.452 68.8506C209.666 68.8506 211.938 69.2095 211.938 72.1318V78.25H210.486V76.9854H210.417C210.11 77.6177 209.255 78.4722 207.649 78.4722C205.889 78.4722 204.487 77.4297 204.487 75.6182ZM205.957 75.6865C205.957 76.6606 206.777 77.1562 207.905 77.1562C209.563 77.1562 210.486 76.0454 210.486 74.8833V73.9434L208.145 74.1143C206.812 74.1997 205.957 74.6782 205.957 75.6865ZM214.297 78.25V68.9702H215.715V70.3887H215.818C216.16 69.4487 217.117 68.8164 218.21 68.8164C218.433 68.8164 218.809 68.8335 218.979 68.8506V70.3374C218.877 70.3032 218.467 70.2349 218.091 70.2349C216.758 70.2349 215.767 71.1577 215.767 72.4053V78.25H214.297ZM224.004 78.438C221.321 78.438 219.663 76.541 219.663 73.687C219.663 70.833 221.338 68.8506 223.867 68.8506C225.815 68.8506 227.866 70.0469 227.866 73.4819V74.0972H221.133C221.201 76.0625 222.346 77.1392 224.004 77.1392C225.115 77.1392 225.815 76.6606 226.157 76.0796H227.729C227.285 77.481 225.918 78.438 224.004 78.438ZM221.15 72.8496H226.379C226.379 71.2944 225.388 70.1494 223.867 70.1494C222.261 70.1494 221.235 71.4141 221.15 72.8496ZM234.172 81.7363V68.9702H235.591V70.4399H235.762C236.069 69.9443 236.65 68.8506 238.445 68.8506C240.769 68.8506 242.393 70.6963 242.393 73.6357C242.393 76.5752 240.769 78.438 238.462 78.438C236.685 78.438 236.069 77.3442 235.762 76.8315H235.642V81.7363H234.172ZM235.608 73.6016C235.608 75.6865 236.548 77.1221 238.257 77.1221C240.017 77.1221 240.923 75.584 240.923 73.6016C240.923 71.6704 240.034 70.1665 238.257 70.1665C236.514 70.1665 235.608 71.5508 235.608 73.6016ZM245.776 65.877V78.25H244.307V65.877H245.776ZM247.673 75.6182C247.673 73.4819 249.553 73.0034 251.16 72.8838C251.749 72.8411 253.253 72.7642 253.672 72.7471V71.9951C253.672 70.8159 252.971 70.1323 251.57 70.1323C250.391 70.1323 249.69 70.6792 249.485 71.3799H247.947C248.135 69.8931 249.587 68.8506 251.638 68.8506C252.852 68.8506 255.125 69.2095 255.125 72.1318V78.25H253.672V76.9854H253.604C253.296 77.6177 252.441 78.4722 250.835 78.4722C249.075 78.4722 247.673 77.4297 247.673 75.6182ZM249.143 75.6865C249.143 76.6606 249.963 77.1562 251.091 77.1562C252.749 77.1562 253.672 76.0454 253.672 74.8833V73.9434L251.331 74.1143C249.998 74.1997 249.143 74.6782 249.143 75.6865ZM258.953 72.6787V78.25H257.483V68.9702H258.901V70.4229H259.021C259.465 69.4829 260.32 68.8506 261.738 68.8506C263.618 68.8506 264.866 69.9956 264.866 72.354V78.25H263.396V72.4565C263.396 71.021 262.61 70.1665 261.294 70.1665C259.944 70.1665 258.953 71.0723 258.953 72.6787ZM271.274 68.9702V70.2007H269.326V75.584C269.326 76.7803 269.907 76.9683 270.54 76.9683C270.813 76.9683 271.189 76.9512 271.411 76.9341V78.3013C271.189 78.3354 270.813 78.3696 270.386 78.3696C269.155 78.3696 267.839 77.6006 267.839 75.96V70.2007H266.438V68.9702H267.839V66.7485H269.326V68.9702H271.274ZM278.162 71.3799C277.957 70.6108 277.375 70.0981 276.282 70.0981C275.137 70.0981 274.316 70.7134 274.316 71.4995C274.316 72.1147 274.812 72.542 275.906 72.7983L277.29 73.1401C278.948 73.5332 279.768 74.3535 279.768 75.6523C279.768 77.2588 278.452 78.438 276.128 78.438C274.043 78.438 272.795 77.5151 272.556 75.8232H274.094C274.265 76.729 274.932 77.1562 276.094 77.1562C277.41 77.1562 278.247 76.6094 278.247 75.7378C278.247 75.0884 277.786 74.644 276.726 74.4048L275.325 74.0801C273.701 73.7041 272.847 72.8154 272.847 71.585C272.847 69.9956 274.231 68.8506 276.282 68.8506C278.196 68.8506 279.409 69.876 279.597 71.3799H278.162ZM285.63 75.6182C285.63 73.4819 287.51 73.0034 289.116 72.8838C289.706 72.8411 291.21 72.7642 291.628 72.7471V71.9951C291.628 70.8159 290.928 70.1323 289.526 70.1323C288.347 70.1323 287.646 70.6792 287.441 71.3799H285.903C286.091 69.8931 287.544 68.8506 289.595 68.8506C290.808 68.8506 293.081 69.2095 293.081 72.1318V78.25H291.628V76.9854H291.56C291.252 77.6177 290.398 78.4722 288.792 78.4722C287.031 78.4722 285.63 77.4297 285.63 75.6182ZM287.1 75.6865C287.1 76.6606 287.92 77.1562 289.048 77.1562C290.706 77.1562 291.628 76.0454 291.628 74.8833V73.9434L289.287 74.1143C287.954 74.1997 287.1 74.6782 287.1 75.6865ZM296.909 72.6787V78.25H295.439V68.9702H296.858V70.4229H296.978C297.422 69.4829 298.276 68.8506 299.695 68.8506C301.575 68.8506 302.822 69.9956 302.822 72.354V78.25H301.353V72.4565C301.353 71.021 300.566 70.1665 299.25 70.1665C297.9 70.1665 296.909 71.0723 296.909 72.6787ZM308.684 78.438C306.377 78.438 304.736 76.5752 304.736 73.6357C304.736 70.6963 306.377 68.8506 308.701 68.8506C310.496 68.8506 311.077 69.9443 311.384 70.4399H311.487V65.877H312.974V78.25H311.538V76.8315H311.384C311.06 77.3442 310.461 78.438 308.684 78.438ZM308.889 77.1221C310.581 77.1221 311.538 75.6865 311.538 73.6016C311.538 71.5508 310.615 70.1665 308.889 70.1665C307.112 70.1665 306.223 71.6704 306.223 73.6016C306.223 75.584 307.129 77.1221 308.889 77.1221ZM319.912 78.25V68.9702H321.382V78.25H319.912ZM320.647 67.4321C320.083 67.4321 319.622 67.0049 319.622 66.458C319.622 65.9111 320.083 65.4839 320.647 65.4839C321.211 65.4839 321.689 65.9111 321.689 66.458C321.689 67.0049 321.211 67.4321 320.647 67.4321ZM325.193 72.6787V78.25H323.723V68.9702H325.142V70.4229H325.261C325.706 69.4829 326.56 68.8506 327.979 68.8506C329.858 68.8506 331.106 69.9956 331.106 72.354V78.25H329.636V72.4565C329.636 71.021 328.85 70.1665 327.534 70.1665C326.184 70.1665 325.193 71.0723 325.193 72.6787ZM340.762 68.9702L337.327 78.25H335.806L332.388 68.9702H333.994L336.523 76.3359H336.626L339.155 68.9702H340.762ZM345.94 78.438C343.257 78.438 341.599 76.541 341.599 73.687C341.599 70.833 343.274 68.8506 345.803 68.8506C347.751 68.8506 349.802 70.0469 349.802 73.4819V74.0972H343.069C343.137 76.0625 344.282 77.1392 345.94 77.1392C347.051 77.1392 347.751 76.6606 348.093 76.0796H349.666C349.221 77.481 347.854 78.438 345.94 78.438ZM343.086 72.8496H348.315C348.315 71.2944 347.324 70.1494 345.803 70.1494C344.197 70.1494 343.171 71.4141 343.086 72.8496ZM356.877 71.3799C356.672 70.6108 356.091 70.0981 354.998 70.0981C353.853 70.0981 353.032 70.7134 353.032 71.4995C353.032 72.1147 353.528 72.542 354.622 72.7983L356.006 73.1401C357.664 73.5332 358.484 74.3535 358.484 75.6523C358.484 77.2588 357.168 78.438 354.844 78.438C352.759 78.438 351.511 77.5151 351.272 75.8232H352.81C352.981 76.729 353.647 77.1562 354.81 77.1562C356.125 77.1562 356.963 76.6094 356.963 75.7378C356.963 75.0884 356.501 74.644 355.442 74.4048L354.041 74.0801C352.417 73.7041 351.562 72.8154 351.562 71.585C351.562 69.9956 352.947 68.8506 354.998 68.8506C356.912 68.8506 358.125 69.876 358.313 71.3799H356.877ZM364.448 68.9702V70.2007H362.5V75.584C362.5 76.7803 363.081 76.9683 363.713 76.9683C363.987 76.9683 364.363 76.9512 364.585 76.9341V78.3013C364.363 78.3354 363.987 78.3696 363.56 78.3696C362.329 78.3696 361.013 77.6006 361.013 75.96V70.2007H359.612V68.9702H361.013V66.7485H362.5V68.9702H364.448ZM370.737 78.25V68.9702H372.207V78.25H370.737ZM371.472 67.4321C370.908 67.4321 370.447 67.0049 370.447 66.458C370.447 65.9111 370.908 65.4839 371.472 65.4839C372.036 65.4839 372.515 65.9111 372.515 66.458C372.515 67.0049 372.036 67.4321 371.472 67.4321ZM376.018 72.6787V78.25H374.548V68.9702H375.967V70.4229H376.086C376.531 69.4829 377.385 68.8506 378.804 68.8506C380.684 68.8506 381.931 69.9956 381.931 72.354V78.25H380.461V72.4565C380.461 71.021 379.675 70.1665 378.359 70.1665C377.009 70.1665 376.018 71.0723 376.018 72.6787ZM392.732 68.9702V70.2007H390.784V75.584C390.784 76.7803 391.365 76.9683 391.997 76.9683C392.271 76.9683 392.646 76.9512 392.869 76.9341V78.3013C392.646 78.3354 392.271 78.3696 391.843 78.3696C390.613 78.3696 389.297 77.6006 389.297 75.96V70.2007H387.896V68.9702H389.297V66.7485H390.784V68.9702H392.732ZM396.304 72.6787V78.25H394.834V65.877H396.304V70.4229H396.423C396.851 69.4658 397.688 68.8506 399.158 68.8506C401.055 68.8506 402.319 69.9785 402.319 72.354V78.25H400.85V72.4565C400.85 71.0039 400.046 70.1665 398.713 70.1665C397.329 70.1665 396.304 71.0723 396.304 72.6787ZM408.574 78.438C405.891 78.438 404.233 76.541 404.233 73.687C404.233 70.833 405.908 68.8506 408.438 68.8506C410.386 68.8506 412.437 70.0469 412.437 73.4819V74.0972H405.703C405.771 76.0625 406.917 77.1392 408.574 77.1392C409.685 77.1392 410.386 76.6606 410.728 76.0796H412.3C411.855 77.481 410.488 78.438 408.574 78.438ZM405.72 72.8496H410.95C410.95 71.2944 409.958 70.1494 408.438 70.1494C406.831 70.1494 405.806 71.4141 405.72 72.8496ZM414.351 78.25V68.9702H415.82V78.25H414.351ZM415.085 67.4321C414.521 67.4321 414.06 67.0049 414.06 66.458C414.06 65.9111 414.521 65.4839 415.085 65.4839C415.649 65.4839 416.128 65.9111 416.128 66.458C416.128 67.0049 415.649 67.4321 415.085 67.4321ZM418.162 78.25V68.9702H419.58V70.3887H419.683C420.024 69.4487 420.981 68.8164 422.075 68.8164C422.297 68.8164 422.673 68.8335 422.844 68.8506V70.3374C422.742 70.3032 422.332 70.2349 421.956 70.2349C420.623 70.2349 419.631 71.1577 419.631 72.4053V78.25H418.162ZM139.939 102.924C137.7 102.924 136.179 101.95 136.008 100.224H137.546C137.751 101.164 138.623 101.643 139.939 101.643C141.528 101.643 142.502 100.959 142.502 99.4209V97.541H142.383C142.075 98.0537 141.477 99.1133 139.683 99.1133C137.427 99.1133 135.735 97.4043 135.735 94.4819C135.735 91.6279 137.375 89.8506 139.7 89.8506C141.494 89.8506 142.075 90.9443 142.417 91.4399H142.537V89.9702H143.972V99.5063C143.972 101.899 142.195 102.924 139.939 102.924ZM139.888 97.7974C141.58 97.7974 142.537 96.584 142.537 94.5332C142.537 92.5508 141.614 91.1665 139.888 91.1665C138.11 91.1665 137.222 92.6704 137.222 94.5332C137.222 96.4644 138.127 97.7974 139.888 97.7974ZM146.313 99.25V89.9702H147.732V91.3887H147.834C148.176 90.4487 149.133 89.8164 150.227 89.8164C150.449 89.8164 150.825 89.8335 150.996 89.8506V91.3374C150.894 91.3032 150.483 91.2349 150.107 91.2349C148.774 91.2349 147.783 92.1577 147.783 93.4053V99.25H146.313ZM155.918 99.438C153.389 99.438 151.68 97.541 151.68 94.6528C151.68 91.7646 153.389 89.8506 155.918 89.8506C158.43 89.8506 160.122 91.7646 160.122 94.6528C160.122 97.541 158.43 99.438 155.918 99.438ZM155.918 98.1392C157.781 98.1392 158.652 96.4985 158.652 94.6528C158.652 92.8071 157.781 91.1494 155.918 91.1494C154.021 91.1494 153.149 92.8071 153.149 94.6528C153.149 96.4985 154.021 98.1392 155.918 98.1392ZM163.831 99.25L161.011 89.9702H162.566L164.548 97.0454H164.634L166.599 89.9702H168.171L170.103 97.0112H170.205L172.188 89.9702H173.726L170.906 99.25H169.453L167.437 92.1748H167.3L165.3 99.25H163.831ZM179.399 89.9702V91.2007H177.451V96.584C177.451 97.7803 178.032 97.9683 178.665 97.9683C178.938 97.9683 179.314 97.9512 179.536 97.9341V99.3013C179.314 99.3354 178.938 99.3696 178.511 99.3696C177.28 99.3696 175.964 98.6006 175.964 96.96V91.2007H174.563V89.9702H175.964V87.7485H177.451V89.9702H179.399ZM182.971 93.6787V99.25H181.501V86.877H182.971V91.4229H183.091C183.518 90.4658 184.355 89.8506 185.825 89.8506C187.722 89.8506 188.987 90.9785 188.987 93.354V99.25H187.517V93.4565C187.517 92.0039 186.714 91.1665 185.381 91.1665C183.997 91.1665 182.971 92.0723 182.971 93.6787ZM192.388 99.3525C191.79 99.3525 191.277 98.8569 191.294 98.2417C191.277 97.6436 191.79 97.1479 192.388 97.1479C192.986 97.1479 193.481 97.6436 193.481 98.2417C193.481 98.8569 192.986 99.3525 192.388 99.3525Z" fill="#8692A6"/>
<mask id="mask0_406_746" style="mask-type:alpha" maskUnits="userSpaceOnUse" x="55" y="55" width="25" height="25">
<rect x="55" y="55" width="25" height="25" fill="#D9D9D9"/>
</mask>
<g mask="url(#mask0_406_746)">
<path d="M67.5 64.401C69.0451 64.401 70.599 64.171 72.1615 63.7109C73.724 63.2509 74.6007 62.7865 74.7917 62.3177C74.6007 61.8142 73.7283 61.3368 72.1745 60.8854C70.6207 60.434 69.0625 60.2083 67.5 60.2083C65.9201 60.2083 64.3707 60.4297 62.8516 60.8724C61.3325 61.3151 60.4514 61.7969 60.2083 62.3177C60.4514 62.7865 61.3325 63.2509 62.8516 63.7109C64.3707 64.171 65.9201 64.401 67.5 64.401ZM73.2292 76.875H74.2708V72.6042L76.1458 74.4792L76.875 73.75L73.75 70.625L70.625 73.75L71.3542 74.4792L73.2292 72.6042V76.875ZM73.75 78.9583C72.309 78.9583 71.0807 78.4505 70.0651 77.4349C69.0495 76.4193 68.5417 75.191 68.5417 73.75C68.5417 72.309 69.0495 71.0807 70.0651 70.0651C71.0807 69.0495 72.309 68.5417 73.75 68.5417C75.191 68.5417 76.4193 69.0495 77.4349 70.0651C78.4505 71.0807 78.9583 72.309 78.9583 73.75C78.9583 75.191 78.4505 76.4193 77.4349 77.4349C76.4193 78.4505 75.191 78.9583 73.75 78.9583ZM66.5365 74.7656C66.5885 75.1476 66.6667 75.5122 66.7708 75.8594C66.875 76.2066 67.0052 76.5451 67.1615 76.875C65.8941 76.8576 64.7135 76.7361 63.6198 76.5104C62.526 76.2847 61.5712 75.9852 60.7552 75.612C59.9392 75.2387 59.2969 74.8047 58.8281 74.3099C58.3594 73.8151 58.125 73.2812 58.125 72.7083V62.2917C58.125 61.1458 59.0408 60.1649 60.8724 59.349C62.704 58.533 64.9132 58.125 67.5 58.125C70.0868 58.125 72.296 58.533 74.1276 59.349C75.9592 60.1649 76.875 61.1458 76.875 62.2917V67.1615C76.5451 67.0052 76.2066 66.875 75.8594 66.7708C75.5122 66.6667 75.1562 66.5885 74.7917 66.5365V64.9219C73.8889 65.4253 72.8125 65.8073 71.5625 66.0677C70.3125 66.3281 68.9583 66.4583 67.5 66.4583C66.0243 66.4583 64.6615 66.3281 63.4115 66.0677C62.1615 65.8073 61.0938 65.4253 60.2083 64.9219V67.5521C61.0938 68.3681 62.2266 68.9106 63.6068 69.1797C64.987 69.4488 66.2847 69.5833 67.5 69.5833H67.7865C67.5608 69.8958 67.3655 70.2257 67.2005 70.5729C67.0356 70.9201 66.8924 71.2847 66.7708 71.6667C65.4514 71.5972 64.2274 71.4366 63.099 71.1849C61.9705 70.9332 61.0069 70.5816 60.2083 70.1302V72.7083C60.3299 72.934 60.5903 73.1641 60.9896 73.3984C61.3889 73.6328 61.875 73.8411 62.4479 74.0234C63.0208 74.2057 63.6589 74.362 64.362 74.4922C65.0651 74.6224 65.7899 74.7135 66.5365 74.7656Z" fill="#31A05F"/>
</g>
</svg>
