<svg width="564" height="135" viewBox="0 0 564 135" fill="none" xmlns="http://www.w3.org/2000/svg">
<rect width="563.75" height="135" rx="7.5" fill="white"/>
<path d="M37.6193 57.7912L67.5 36.0816L97.3807 57.7912L85.9673 92.9181H49.0327L37.6193 57.7912Z" fill="white" stroke="#31A05F" stroke-width="1.75"/>
<path d="M136.445 51.5V37.3594H141.484C144.766 37.3594 146.387 39.332 146.387 41.9492C146.387 44.5469 144.766 46.5391 141.484 46.5391H138.594V51.5H136.445ZM138.594 44.7031H141.27C143.359 44.7031 144.219 43.5312 144.219 41.9492C144.219 40.3477 143.359 39.1953 141.27 39.1953H138.594V44.7031ZM150.566 37.3594V51.5H148.477V37.3594H150.566ZM152.617 48.5117C152.617 46.0898 154.668 45.4648 156.582 45.3281C157.285 45.2793 158.877 45.1914 159.375 45.1719L159.355 44.332C159.355 43.1406 158.633 42.4375 157.207 42.4375C155.977 42.4375 155.234 43.0039 155.02 43.7852H152.949C153.145 42.0273 154.785 40.7578 157.285 40.7578C158.965 40.7578 161.445 41.3828 161.445 44.4492V51.5H159.414V50.0547H159.336C158.926 50.8555 157.949 51.7344 156.191 51.7344C154.18 51.7344 152.617 50.582 152.617 48.5117ZM154.648 48.5312C154.648 49.5469 155.488 50.0742 156.66 50.0742C158.359 50.0742 159.375 48.9414 159.375 47.6719V46.6953L156.875 46.8711C155.508 46.9688 154.648 47.4766 154.648 48.5312ZM166.055 45.2109V51.5H163.965V40.8945H165.977V42.6328H166.094C166.602 41.5 167.637 40.7578 169.219 40.7578C171.406 40.7578 172.832 42.125 172.832 44.7617V51.5H170.762V45.0156C170.762 43.4727 169.922 42.5547 168.516 42.5547C167.09 42.5547 166.055 43.5117 166.055 45.2109ZM180.332 40.8945V42.5547H178.164V48.375C178.164 49.5664 178.77 49.7812 179.434 49.8008C179.727 49.8008 180.195 49.7617 180.488 49.7422V51.5586C180.195 51.5977 179.746 51.6367 179.18 51.6367C177.539 51.6367 176.074 50.7383 176.094 48.8047V42.5547H174.531V40.8945H176.094V38.3555H178.164V40.8945H180.332ZM187.422 37.3594H190.039L194.512 48.3164H194.688L199.16 37.3594H201.777V51.5H199.727V41.2852H199.59L195.449 51.4805H193.75L189.59 41.2656H189.473V51.5H187.422V37.3594ZM204.004 48.5117C204.004 46.0898 206.055 45.4648 207.969 45.3281C208.672 45.2793 210.264 45.1914 210.762 45.1719L210.742 44.332C210.742 43.1406 210.02 42.4375 208.594 42.4375C207.363 42.4375 206.621 43.0039 206.406 43.7852H204.336C204.531 42.0273 206.172 40.7578 208.672 40.7578C210.352 40.7578 212.832 41.3828 212.832 44.4492V51.5H210.801V50.0547H210.723C210.312 50.8555 209.336 51.7344 207.578 51.7344C205.566 51.7344 204.004 50.582 204.004 48.5117ZM206.035 48.5312C206.035 49.5469 206.875 50.0742 208.047 50.0742C209.746 50.0742 210.762 48.9414 210.762 47.6719V46.6953L208.262 46.8711C206.895 46.9688 206.035 47.4766 206.035 48.5312ZM217.441 45.2109V51.5H215.352V40.8945H217.363V42.6328H217.48C217.988 41.5 219.023 40.7578 220.605 40.7578C222.793 40.7578 224.219 42.125 224.219 44.7617V51.5H222.148V45.0156C222.148 43.4727 221.309 42.5547 219.902 42.5547C218.477 42.5547 217.441 43.5117 217.441 45.2109ZM226.27 48.5117C226.27 46.0898 228.32 45.4648 230.234 45.3281C230.938 45.2793 232.529 45.1914 233.027 45.1719L233.008 44.332C233.008 43.1406 232.285 42.4375 230.859 42.4375C229.629 42.4375 228.887 43.0039 228.672 43.7852H226.602C226.797 42.0273 228.438 40.7578 230.938 40.7578C232.617 40.7578 235.098 41.3828 235.098 44.4492V51.5H233.066V50.0547H232.988C232.578 50.8555 231.602 51.7344 229.844 51.7344C227.832 51.7344 226.27 50.582 226.27 48.5117ZM228.301 48.5312C228.301 49.5469 229.141 50.0742 230.312 50.0742C232.012 50.0742 233.027 48.9414 233.027 47.6719V46.6953L230.527 46.8711C229.16 46.9688 228.301 47.4766 228.301 48.5312ZM242.07 55.6992C239.395 55.6992 237.637 54.5078 237.441 52.5352H239.57C239.766 53.5312 240.703 54.0195 242.09 54.0195C243.75 54.0195 244.805 53.3164 244.805 51.6562V49.5664H244.668C244.297 50.25 243.535 51.3438 241.582 51.3438C239.082 51.3438 237.148 49.4688 237.148 46.0898C237.148 42.7109 239.043 40.7578 241.602 40.7578C243.574 40.7578 244.297 41.9492 244.688 42.6133H244.824V40.8945H246.855V51.7344C246.855 54.4492 244.805 55.6992 242.07 55.6992ZM242.051 49.625C243.828 49.625 244.824 48.3164 244.824 46.1289C244.824 43.9805 243.848 42.5352 242.051 42.5352C240.195 42.5352 239.277 44.0977 239.277 46.1289C239.277 48.1992 240.234 49.625 242.051 49.625ZM253.965 51.7148C250.84 51.7148 248.926 49.5664 248.926 46.2656C248.926 43.0039 250.879 40.7578 253.828 40.7578C256.25 40.7578 258.535 42.2617 258.535 46.0898V46.832H250.996C251.055 48.8438 252.236 49.9961 253.984 49.9961C255.176 49.9961 255.938 49.4883 256.289 48.8438H258.398C257.93 50.5625 256.289 51.7148 253.965 51.7148ZM251.016 45.2695H256.484C256.484 43.6484 255.449 42.4766 253.848 42.4766C252.178 42.4766 251.094 43.7656 251.016 45.2695ZM260.605 51.5V40.8945H262.617V42.5742H262.734C263.125 41.4414 264.18 40.7383 265.43 40.7383C265.684 40.7383 266.094 40.7578 266.309 40.7773V42.7695C266.133 42.7305 265.645 42.6523 265.215 42.6523C263.77 42.6523 262.695 43.6484 262.695 45.0352V51.5H260.605Z" fill="black"/>
<path d="M144.81 80.9893C144.28 79.3999 143.066 78.3916 141.306 78.3916C139.119 78.3916 137.375 80.1177 137.375 83.3135C137.375 86.5093 139.119 88.2354 141.409 88.2354C143.502 88.2354 144.929 86.834 144.963 84.6465H141.733V83.2964H146.467V84.6294C146.467 87.7056 144.348 89.6709 141.409 89.6709C138.11 89.6709 135.889 87.2271 135.889 83.3135C135.889 79.3999 138.127 76.9561 141.306 76.9561C143.921 76.9561 145.938 78.5967 146.399 80.9893H144.81ZM148.586 89.5V80.2202H150.005V81.6387H150.107C150.449 80.6987 151.406 80.0664 152.5 80.0664C152.722 80.0664 153.098 80.0835 153.269 80.1006V81.5874C153.167 81.5532 152.756 81.4849 152.38 81.4849C151.047 81.4849 150.056 82.4077 150.056 83.6553V89.5H148.586ZM158.191 89.688C155.662 89.688 153.953 87.791 153.953 84.9028C153.953 82.0146 155.662 80.1006 158.191 80.1006C160.703 80.1006 162.395 82.0146 162.395 84.9028C162.395 87.791 160.703 89.688 158.191 89.688ZM158.191 88.3892C160.054 88.3892 160.925 86.7485 160.925 84.9028C160.925 83.0571 160.054 81.3994 158.191 81.3994C156.294 81.3994 155.422 83.0571 155.422 84.9028C155.422 86.7485 156.294 88.3892 158.191 88.3892ZM166.104 89.5L163.284 80.2202H164.839L166.821 87.2954H166.907L168.872 80.2202H170.444L172.375 87.2612H172.478L174.46 80.2202H175.999L173.179 89.5H171.726L169.709 82.4248H169.573L167.573 89.5H166.104ZM181.57 86.8682C181.57 84.7319 183.45 84.2534 185.056 84.1338C185.646 84.0911 187.15 84.0142 187.568 83.9971V83.2451C187.568 82.0659 186.868 81.3823 185.466 81.3823C184.287 81.3823 183.586 81.9292 183.381 82.6299H181.843C182.031 81.1431 183.484 80.1006 185.535 80.1006C186.748 80.1006 189.021 80.4595 189.021 83.3818V89.5H187.568V88.2354H187.5C187.192 88.8677 186.338 89.7222 184.731 89.7222C182.971 89.7222 181.57 88.6797 181.57 86.8682ZM183.04 86.9365C183.04 87.9106 183.86 88.4062 184.988 88.4062C186.646 88.4062 187.568 87.2954 187.568 86.1333V85.1934L185.227 85.3643C183.894 85.4497 183.04 85.9282 183.04 86.9365ZM192.849 83.9287V89.5H191.379V80.2202H192.798V81.6729H192.917C193.362 80.7329 194.216 80.1006 195.635 80.1006C197.515 80.1006 198.762 81.2456 198.762 83.604V89.5H197.292V83.7065C197.292 82.271 196.506 81.4165 195.19 81.4165C193.84 81.4165 192.849 82.3223 192.849 83.9287ZM204.624 89.688C202.317 89.688 200.676 87.8252 200.676 84.8857C200.676 81.9463 202.317 80.1006 204.641 80.1006C206.436 80.1006 207.017 81.1943 207.324 81.6899H207.427V77.127H208.914V89.5H207.478V88.0815H207.324C207 88.5942 206.401 89.688 204.624 89.688ZM204.829 88.3721C206.521 88.3721 207.478 86.9365 207.478 84.8516C207.478 82.8008 206.555 81.4165 204.829 81.4165C203.052 81.4165 202.163 82.9204 202.163 84.8516C202.163 86.834 203.069 88.3721 204.829 88.3721ZM219.355 89.688C217.048 89.688 215.408 87.8252 215.408 84.8857C215.408 81.9463 217.048 80.1006 219.373 80.1006C221.167 80.1006 221.748 81.1943 222.056 81.6899H222.158V77.127H223.645V89.5H222.209V88.0815H222.056C221.731 88.5942 221.133 89.688 219.355 89.688ZM219.561 88.3721C221.252 88.3721 222.209 86.9365 222.209 84.8516C222.209 82.8008 221.287 81.4165 219.561 81.4165C217.783 81.4165 216.895 82.9204 216.895 84.8516C216.895 86.834 217.8 88.3721 219.561 88.3721ZM229.985 89.688C227.456 89.688 225.747 87.791 225.747 84.9028C225.747 82.0146 227.456 80.1006 229.985 80.1006C232.498 80.1006 234.189 82.0146 234.189 84.9028C234.189 87.791 232.498 89.688 229.985 89.688ZM229.985 88.3892C231.848 88.3892 232.72 86.7485 232.72 84.9028C232.72 83.0571 231.848 81.3994 229.985 81.3994C228.088 81.3994 227.217 83.0571 227.217 84.9028C227.217 86.7485 228.088 88.3892 229.985 88.3892ZM239.915 89.688C237.283 89.688 235.676 87.6885 235.676 84.9028C235.676 82.083 237.351 80.1006 239.88 80.1006C241.863 80.1006 243.333 81.2627 243.572 83.0229H242.102C241.897 82.1685 241.145 81.3994 239.915 81.3994C238.257 81.3994 237.146 82.7666 237.146 84.8516C237.146 87.0049 238.223 88.3721 239.915 88.3721C241.008 88.3721 241.846 87.791 242.102 86.7656H243.572C243.333 88.4233 241.982 89.688 239.915 89.688ZM251.245 85.689V80.2202H252.698V89.5H251.245V87.9277H251.143C250.698 88.8677 249.792 89.6196 248.391 89.6196C246.631 89.6196 245.383 88.4746 245.383 86.1162V80.2202H246.853V86.0137C246.853 87.3467 247.69 88.2012 248.87 88.2012C249.912 88.2012 251.245 87.415 251.245 85.689ZM255.056 89.5V80.2202H256.475V81.6729H256.594C256.987 80.6816 257.876 80.1006 259.089 80.1006C260.303 80.1006 261.123 80.6816 261.567 81.6729H261.67C262.148 80.7158 263.123 80.1006 264.456 80.1006C266.113 80.1006 267.292 81.1089 267.292 83.2964V89.5H265.823V83.3135C265.823 81.9463 264.951 81.4165 263.943 81.4165C262.644 81.4165 261.909 82.2881 261.909 83.4673V89.5H260.422V83.1597C260.422 82.1172 259.67 81.4165 258.611 81.4165C257.5 81.4165 256.526 82.3564 256.526 83.7065V89.5H255.056ZM273.547 89.688C270.864 89.688 269.207 87.791 269.207 84.937C269.207 82.083 270.881 80.1006 273.411 80.1006C275.359 80.1006 277.41 81.2969 277.41 84.7319V85.3472H270.676C270.745 87.3125 271.89 88.3892 273.547 88.3892C274.658 88.3892 275.359 87.9106 275.701 87.3296H277.273C276.829 88.731 275.461 89.688 273.547 89.688ZM270.693 84.0996H275.923C275.923 82.5444 274.932 81.3994 273.411 81.3994C271.804 81.3994 270.779 82.6641 270.693 84.0996ZM280.793 83.9287V89.5H279.324V80.2202H280.742V81.6729H280.862C281.306 80.7329 282.161 80.1006 283.579 80.1006C285.459 80.1006 286.707 81.2456 286.707 83.604V89.5H285.237V83.7065C285.237 82.271 284.451 81.4165 283.135 81.4165C281.785 81.4165 280.793 82.3223 280.793 83.9287ZM293.115 80.2202V81.4507H291.167V86.834C291.167 88.0303 291.748 88.2183 292.38 88.2183C292.654 88.2183 293.03 88.2012 293.252 88.1841V89.5513C293.03 89.5854 292.654 89.6196 292.227 89.6196C290.996 89.6196 289.68 88.8506 289.68 87.21V81.4507H288.279V80.2202H289.68V77.9985H291.167V80.2202H293.115ZM299.404 92.9863V80.2202H300.823V81.6899H300.994C301.301 81.1943 301.882 80.1006 303.677 80.1006C306.001 80.1006 307.625 81.9463 307.625 84.8857C307.625 87.8252 306.001 89.688 303.694 89.688C301.917 89.688 301.301 88.5942 300.994 88.0815H300.874V92.9863H299.404ZM300.84 84.8516C300.84 86.9365 301.78 88.3721 303.489 88.3721C305.249 88.3721 306.155 86.834 306.155 84.8516C306.155 82.9204 305.266 81.4165 303.489 81.4165C301.746 81.4165 300.84 82.8008 300.84 84.8516ZM311.008 77.127V89.5H309.539V77.127H311.008ZM312.905 86.8682C312.905 84.7319 314.785 84.2534 316.392 84.1338C316.981 84.0911 318.485 84.0142 318.904 83.9971V83.2451C318.904 82.0659 318.203 81.3823 316.802 81.3823C315.623 81.3823 314.922 81.9292 314.717 82.6299H313.179C313.367 81.1431 314.819 80.1006 316.87 80.1006C318.083 80.1006 320.356 80.4595 320.356 83.3818V89.5H318.904V88.2354H318.835C318.528 88.8677 317.673 89.7222 316.067 89.7222C314.307 89.7222 312.905 88.6797 312.905 86.8682ZM314.375 86.9365C314.375 87.9106 315.195 88.4062 316.323 88.4062C317.981 88.4062 318.904 87.2954 318.904 86.1333V85.1934L316.562 85.3643C315.229 85.4497 314.375 85.9282 314.375 86.9365ZM324.185 83.9287V89.5H322.715V80.2202H324.133V81.6729H324.253C324.697 80.7329 325.552 80.1006 326.97 80.1006C328.85 80.1006 330.098 81.2456 330.098 83.604V89.5H328.628V83.7065C328.628 82.271 327.842 81.4165 326.526 81.4165C325.176 81.4165 324.185 82.3223 324.185 83.9287ZM336.506 80.2202V81.4507H334.558V86.834C334.558 88.0303 335.139 88.2183 335.771 88.2183C336.045 88.2183 336.421 88.2012 336.643 88.1841V89.5513C336.421 89.5854 336.045 89.6196 335.618 89.6196C334.387 89.6196 333.071 88.8506 333.071 87.21V81.4507H331.67V80.2202H333.071V77.9985H334.558V80.2202H336.506ZM343.394 82.6299C343.188 81.8608 342.607 81.3481 341.514 81.3481C340.369 81.3481 339.548 81.9634 339.548 82.7495C339.548 83.3647 340.044 83.792 341.138 84.0483L342.522 84.3901C344.18 84.7832 345 85.6035 345 86.9023C345 88.5088 343.684 89.688 341.36 89.688C339.275 89.688 338.027 88.7651 337.788 87.0732H339.326C339.497 87.979 340.164 88.4062 341.326 88.4062C342.642 88.4062 343.479 87.8594 343.479 86.9878C343.479 86.3384 343.018 85.894 341.958 85.6548L340.557 85.3301C338.933 84.9541 338.079 84.0654 338.079 82.835C338.079 81.2456 339.463 80.1006 341.514 80.1006C343.428 80.1006 344.641 81.126 344.829 82.6299H343.394ZM355.356 80.2202V81.4507H353.408V86.834C353.408 88.0303 353.989 88.2183 354.622 88.2183C354.895 88.2183 355.271 88.2012 355.493 88.1841V89.5513C355.271 89.5854 354.895 89.6196 354.468 89.6196C353.237 89.6196 351.921 88.8506 351.921 87.21V81.4507H350.52V80.2202H351.921V77.9985H353.408V80.2202H355.356ZM360.945 89.688C358.416 89.688 356.707 87.791 356.707 84.9028C356.707 82.0146 358.416 80.1006 360.945 80.1006C363.457 80.1006 365.149 82.0146 365.149 84.9028C365.149 87.791 363.457 89.688 360.945 89.688ZM360.945 88.3892C362.808 88.3892 363.679 86.7485 363.679 84.9028C363.679 83.0571 362.808 81.3994 360.945 81.3994C359.048 81.3994 358.176 83.0571 358.176 84.9028C358.176 86.7485 359.048 88.3892 360.945 88.3892ZM375.369 89.688C372.686 89.688 371.028 87.791 371.028 84.937C371.028 82.083 372.703 80.1006 375.232 80.1006C377.18 80.1006 379.231 81.2969 379.231 84.7319V85.3472H372.498C372.566 87.3125 373.711 88.3892 375.369 88.3892C376.479 88.3892 377.18 87.9106 377.522 87.3296H379.094C378.65 88.731 377.283 89.688 375.369 89.688ZM372.515 84.0996H377.744C377.744 82.5444 376.753 81.3994 375.232 81.3994C373.625 81.3994 372.6 82.6641 372.515 84.0996ZM380.701 86.8682C380.701 84.7319 382.581 84.2534 384.187 84.1338C384.777 84.0911 386.281 84.0142 386.699 83.9971V83.2451C386.699 82.0659 385.999 81.3823 384.597 81.3823C383.418 81.3823 382.717 81.9292 382.512 82.6299H380.974C381.162 81.1431 382.615 80.1006 384.666 80.1006C385.879 80.1006 388.152 80.4595 388.152 83.3818V89.5H386.699V88.2354H386.631C386.323 88.8677 385.469 89.7222 383.862 89.7222C382.102 89.7222 380.701 88.6797 380.701 86.8682ZM382.17 86.9365C382.17 87.9106 382.991 88.4062 384.119 88.4062C385.776 88.4062 386.699 87.2954 386.699 86.1333V85.1934L384.358 85.3643C383.025 85.4497 382.17 85.9282 382.17 86.9365ZM390.51 89.5V80.2202H391.929V81.6387H392.031C392.373 80.6987 393.33 80.0664 394.424 80.0664C394.646 80.0664 395.022 80.0835 395.193 80.1006V81.5874C395.09 81.5532 394.68 81.4849 394.304 81.4849C392.971 81.4849 391.98 82.4077 391.98 83.6553V89.5H390.51ZM398.098 83.9287V89.5H396.628V80.2202H398.047V81.6729H398.167C398.611 80.7329 399.465 80.1006 400.884 80.1006C402.764 80.1006 404.011 81.2456 404.011 83.604V89.5H402.542V83.7065C402.542 82.271 401.755 81.4165 400.439 81.4165C399.089 81.4165 398.098 82.3223 398.098 83.9287ZM410.762 92.9863V80.2202H412.18V81.6899H412.351C412.659 81.1943 413.24 80.1006 415.034 80.1006C417.358 80.1006 418.982 81.9463 418.982 84.8857C418.982 87.8252 417.358 89.688 415.051 89.688C413.274 89.688 412.659 88.5942 412.351 88.0815H412.231V92.9863H410.762ZM412.197 84.8516C412.197 86.9365 413.137 88.3721 414.846 88.3721C416.606 88.3721 417.512 86.834 417.512 84.8516C417.512 82.9204 416.624 81.4165 414.846 81.4165C413.103 81.4165 412.197 82.8008 412.197 84.8516ZM420.896 89.5V80.2202H422.314V81.6387H422.417C422.759 80.6987 423.716 80.0664 424.81 80.0664C425.032 80.0664 425.408 80.0835 425.579 80.1006V81.5874C425.476 81.5532 425.066 81.4849 424.69 81.4849C423.357 81.4849 422.366 82.4077 422.366 83.6553V89.5H420.896ZM430.5 89.688C427.971 89.688 426.262 87.791 426.262 84.9028C426.262 82.0146 427.971 80.1006 430.5 80.1006C433.013 80.1006 434.705 82.0146 434.705 84.9028C434.705 87.791 433.013 89.688 430.5 89.688ZM430.5 88.3892C432.363 88.3892 433.235 86.7485 433.235 84.9028C433.235 83.0571 432.363 81.3994 430.5 81.3994C428.604 81.3994 427.732 83.0571 427.732 84.9028C427.732 86.7485 428.604 88.3892 430.5 88.3892ZM440.789 80.2202V81.4507H438.738V89.5H437.251V81.4507H435.764V80.2202H437.251V78.9556C437.251 77.4517 438.259 76.5459 439.9 76.5459C440.259 76.5459 440.686 76.5972 440.994 76.6484V77.9644C440.686 77.9131 440.413 77.896 440.225 77.896C439.199 77.896 438.738 78.3232 438.738 79.2803V80.2202H440.789ZM442.532 89.5V80.2202H444.001V89.5H442.532ZM443.267 78.6821C442.703 78.6821 442.241 78.2549 442.241 77.708C442.241 77.1611 442.703 76.7339 443.267 76.7339C443.831 76.7339 444.309 77.1611 444.309 77.708C444.309 78.2549 443.831 78.6821 443.267 78.6821ZM450.393 80.2202V81.4507H448.445V86.834C448.445 88.0303 449.026 88.2183 449.658 88.2183C449.932 88.2183 450.308 88.2012 450.53 88.1841V89.5513C450.308 89.5854 449.932 89.6196 449.504 89.6196C448.274 89.6196 446.958 88.8506 446.958 87.21V81.4507H445.557V80.2202H446.958V77.9985H448.445V80.2202H450.393ZM457.28 82.6299C457.075 81.8608 456.494 81.3481 455.4 81.3481C454.255 81.3481 453.435 81.9634 453.435 82.7495C453.435 83.3647 453.931 83.792 455.024 84.0483L456.409 84.3901C458.066 84.7832 458.887 85.6035 458.887 86.9023C458.887 88.5088 457.571 89.688 455.247 89.688C453.162 89.688 451.914 88.7651 451.675 87.0732H453.213C453.384 87.979 454.05 88.4062 455.212 88.4062C456.528 88.4062 457.366 87.8594 457.366 86.9878C457.366 86.3384 456.904 85.894 455.845 85.6548L454.443 85.3301C452.82 84.9541 451.965 84.0654 451.965 82.835C451.965 81.2456 453.35 80.1006 455.4 80.1006C457.314 80.1006 458.528 81.126 458.716 82.6299H457.28ZM461.843 89.6025C461.245 89.6025 460.732 89.1069 460.75 88.4917C460.732 87.8936 461.245 87.3979 461.843 87.3979C462.441 87.3979 462.937 87.8936 462.937 88.4917C462.937 89.1069 462.441 89.6025 461.843 89.6025Z" fill="#8692A6"/>
<path fill-rule="evenodd" clip-rule="evenodd" d="M59.6505 71.1085C60.6272 70.1317 61.952 69.583 63.3333 69.583H71.6667C73.048 69.583 74.3728 70.1317 75.3495 71.1085C76.3263 72.0852 76.875 73.41 76.875 74.7913V76.8747C76.875 77.45 76.4086 77.9163 75.8333 77.9163C75.258 77.9163 74.7917 77.45 74.7917 76.8747V74.7913C74.7917 73.9625 74.4624 73.1677 73.8764 72.5816C73.2903 71.9956 72.4955 71.6663 71.6667 71.6663H63.3333C62.5045 71.6663 61.7097 71.9956 61.1236 72.5816C60.5376 73.1677 60.2083 73.9625 60.2083 74.7913V76.8747C60.2083 77.45 59.742 77.9163 59.1667 77.9163C58.5914 77.9163 58.125 77.45 58.125 76.8747V74.7913C58.125 73.41 58.6737 72.0852 59.6505 71.1085Z" fill="#31A05F"/>
<path fill-rule="evenodd" clip-rule="evenodd" d="M67.5 59.1663C65.7741 59.1663 64.375 60.5655 64.375 62.2913C64.375 64.0172 65.7741 65.4163 67.5 65.4163C69.2259 65.4163 70.625 64.0172 70.625 62.2913C70.625 60.5655 69.2259 59.1663 67.5 59.1663ZM62.2917 62.2913C62.2917 59.4149 64.6235 57.083 67.5 57.083C70.3765 57.083 72.7084 59.4149 72.7084 62.2913C72.7084 65.1678 70.3765 67.4997 67.5 67.4997C64.6235 67.4997 62.2917 65.1678 62.2917 62.2913Z" fill="#31A05F"/>
</svg>
