<svg width="410" height="100" viewBox="0 0 410 100" fill="none" xmlns="http://www.w3.org/2000/svg">
<rect width="410" height="100" rx="10" fill="white"/>
<rect width="145" height="1.25" transform="translate(60 38.748)" fill="#31A05F"/>
<rect width="145" height="1.25" transform="translate(205 38.748)" fill="#C6C6C6"/>
<rect x="47.5" y="25.9995" width="25" height="25" rx="12.5" fill="#31A05F"/>
<path d="M58.8167 41.4827C58.65 41.4827 58.4917 41.416 58.375 41.2993L56.0167 38.941C55.775 38.6993 55.775 38.2993 56.0167 38.0577C56.2584 37.816 56.6584 37.816 56.9 38.0577L58.8167 39.9743L63.1 35.691C63.3417 35.4493 63.7417 35.4493 63.9834 35.691C64.225 35.9327 64.225 36.3327 63.9834 36.5743L59.2584 41.2993C59.1417 41.416 58.9834 41.4827 58.8167 41.4827Z" fill="white"/>
<path d="M31.3511 67.4995V58.6616H36.8931V59.8213H32.6938V62.4946H36.6001V63.6421H32.6938V66.3398H36.9419V67.4995H31.3511ZM40.3623 63.5688V67.4995H39.0562V60.8711H40.3135V61.9575H40.3867C40.7041 61.2495 41.3511 60.7856 42.3398 60.7856C43.707 60.7856 44.5981 61.6401 44.5981 63.2881V67.4995H43.3042V63.4468C43.3042 62.4824 42.7793 61.9087 41.9004 61.9087C41.0093 61.9087 40.3623 62.5068 40.3623 63.5688ZM49.9106 60.8711V61.9087H48.5557V65.5464C48.5557 66.291 48.9341 66.4253 49.3491 66.4375C49.5322 66.4375 49.8252 66.4131 50.0083 66.4009V67.5361C49.8252 67.5605 49.5444 67.585 49.1904 67.585C48.165 67.585 47.2495 67.0234 47.2617 65.8149V61.9087H46.2852V60.8711H47.2617V59.2842H48.5557V60.8711H49.9106ZM54.5884 67.6338C52.6353 67.6338 51.439 66.291 51.439 64.228C51.439 62.1895 52.6597 60.7856 54.5029 60.7856C56.0166 60.7856 57.4448 61.7256 57.4448 64.1182V64.582H52.7329C52.7695 65.8394 53.5081 66.5596 54.6006 66.5596C55.3452 66.5596 55.8213 66.2422 56.041 65.8394H57.3594C57.0664 66.9136 56.041 67.6338 54.5884 67.6338ZM52.7451 63.6055H56.1631C56.1631 62.5923 55.5161 61.8599 54.5151 61.8599C53.4714 61.8599 52.7939 62.6655 52.7451 63.6055ZM59.3638 67.4995V60.8711H60.6211V61.9209H60.6943C60.9385 61.2129 61.5977 60.7734 62.3789 60.7734C62.5376 60.7734 62.7939 60.7856 62.9282 60.7979V62.043C62.8184 62.0186 62.5132 61.9697 62.2446 61.9697C61.3413 61.9697 60.6699 62.5923 60.6699 63.459V67.4995H59.3638ZM69.6592 58.6616V67.4995H68.3164V58.6616H69.6592ZM73.2749 63.5688V67.4995H71.9687V60.8711H73.2261V61.9575H73.2993C73.6167 61.2495 74.2637 60.7856 75.2524 60.7856C76.6196 60.7856 77.5107 61.6401 77.5107 63.2881V67.4995H76.2168V63.4468C76.2168 62.4824 75.6919 61.9087 74.813 61.9087C73.9219 61.9087 73.2749 62.5068 73.2749 63.5688ZM82.8843 60.8711V61.9087H81.4561V67.4995H80.1499V61.9087H79.1245V60.8711H80.1499V60.1021C80.1499 58.918 80.9067 58.2466 82.1274 58.2466C82.4448 58.2466 82.7622 58.2832 83.0186 58.332V59.4185C82.7744 59.3818 82.5913 59.3696 82.4692 59.3696C81.7734 59.3696 81.4561 59.6504 81.4561 60.2974V60.8711H82.8843ZM87.2324 67.6338C85.3525 67.6338 84.1318 66.2666 84.1318 64.2158C84.1318 62.1528 85.3525 60.7856 87.2324 60.7856C89.1001 60.7856 90.3208 62.1528 90.3208 64.2158C90.3208 66.2666 89.1001 67.6338 87.2324 67.6338ZM87.2324 66.5474C88.4287 66.5474 89.0024 65.4854 89.0024 64.2158C89.0024 62.9463 88.4287 61.8599 87.2324 61.8599C86.0117 61.8599 85.438 62.9463 85.438 64.2158C85.438 65.4854 86.0117 66.5474 87.2324 66.5474Z" fill="#6F6F6F"/>
<rect x="193.125" y="26.6245" width="23.75" height="23.75" rx="11.875" fill="white"/>
<rect x="193.125" y="26.6245" width="23.75" height="23.75" rx="11.875" stroke="#31A05F" stroke-width="1.25"/>
<circle cx="205" cy="38.4995" r="2.5" fill="#31A05F"/>
<path d="M189.863 58.6616H191.206V64.4722C191.206 66.3276 189.814 67.646 187.702 67.646C185.566 67.646 184.187 66.3276 184.187 64.4722V58.6616H185.53V64.3623C185.53 65.5586 186.36 66.4253 187.702 66.4253C189.033 66.4253 189.863 65.5586 189.863 64.3623V58.6616ZM193.528 69.9897V60.8711H194.797V61.9453H194.907C195.139 61.5303 195.591 60.7856 196.811 60.7856C198.41 60.7856 199.594 62.043 199.594 64.2036C199.594 66.3398 198.435 67.6338 196.823 67.6338C195.615 67.6338 195.139 66.9014 194.907 66.4619H194.834V69.9897H193.528ZM194.809 64.1792C194.809 65.5708 195.42 66.5229 196.531 66.5229C197.678 66.5229 198.276 65.5098 198.276 64.1792C198.276 62.873 197.69 61.8965 196.531 61.8965C195.407 61.8965 194.809 62.7998 194.809 64.1792ZM202.82 58.6616V67.4995H201.513V58.6616H202.82ZM207.839 67.6338C205.959 67.6338 204.739 66.2666 204.739 64.2158C204.739 62.1528 205.959 60.7856 207.839 60.7856C209.707 60.7856 210.927 62.1528 210.927 64.2158C210.927 66.2666 209.707 67.6338 207.839 67.6338ZM207.839 66.5474C209.035 66.5474 209.609 65.4854 209.609 64.2158C209.609 62.9463 209.035 61.8599 207.839 61.8599C206.618 61.8599 206.045 62.9463 206.045 64.2158C206.045 65.4854 206.618 66.5474 207.839 66.5474ZM212.529 65.6318C212.529 64.1182 213.811 63.7275 215.007 63.6421C215.447 63.6116 216.441 63.5566 216.753 63.5444L216.74 63.0195C216.74 62.2749 216.289 61.8354 215.398 61.8354C214.629 61.8354 214.165 62.1895 214.031 62.6777H212.737C212.859 61.5791 213.884 60.7856 215.447 60.7856C216.496 60.7856 218.047 61.1763 218.047 63.0928V67.4995H216.777V66.5962H216.728C216.472 67.0967 215.862 67.646 214.763 67.646C213.506 67.646 212.529 66.9258 212.529 65.6318ZM213.799 65.644C213.799 66.2788 214.323 66.6084 215.056 66.6084C216.118 66.6084 216.753 65.9004 216.753 65.1069V64.4966L215.19 64.6064C214.336 64.6675 213.799 64.9849 213.799 65.644ZM222.724 67.6338C221.125 67.6338 219.953 66.3398 219.953 64.2036C219.953 62.043 221.137 60.7856 222.737 60.7856C223.969 60.7856 224.421 61.5303 224.653 61.9453H224.714V58.6616H226.02V67.4995H224.751V66.4619H224.653C224.409 66.9014 223.933 67.6338 222.724 67.6338ZM223.017 66.5229C224.128 66.5229 224.751 65.5708 224.751 64.1792C224.751 62.7998 224.14 61.8965 223.017 61.8965C221.858 61.8965 221.284 62.873 221.284 64.1792C221.284 65.5098 221.882 66.5229 223.017 66.5229Z" fill="#6F6F6F"/>
<rect x="338.125" y="26.6245" width="23.75" height="23.75" rx="11.875" fill="white"/>
<rect x="338.125" y="26.6245" width="23.75" height="23.75" rx="11.875" stroke="#C6C6C6" stroke-width="1.25"/>
<path d="M305.463 67.4995H304.035L307.209 58.6616H308.759L311.945 67.4995H310.517L309.711 65.168H306.269L305.463 67.4995ZM306.659 64.0449H309.321L308.014 60.2729H307.953L306.659 64.0449ZM314.181 67.4995L312.24 60.8711H313.583L314.877 65.7295H314.95L316.244 60.8711H317.587L318.869 65.7051H318.942L320.224 60.8711H321.567L319.626 67.4995H318.295L316.952 62.7266H316.855L315.524 67.4995H314.181ZM322.961 65.6318C322.961 64.1182 324.242 63.7275 325.439 63.6421C325.878 63.6116 326.873 63.5566 327.184 63.5444L327.172 63.0195C327.172 62.2749 326.72 61.8354 325.829 61.8354C325.06 61.8354 324.596 62.1895 324.462 62.6777H323.168C323.29 61.5791 324.316 60.7856 325.878 60.7856C326.928 60.7856 328.478 61.1763 328.478 63.0928V67.4995H327.209V66.5962H327.16C326.904 67.0967 326.293 67.646 325.195 67.646C323.937 67.646 322.961 66.9258 322.961 65.6318ZM324.23 65.644C324.23 66.2788 324.755 66.6084 325.488 66.6084C326.55 66.6084 327.184 65.9004 327.184 65.1069V64.4966L325.622 64.6064C324.767 64.6675 324.23 64.9849 324.23 65.644ZM330.678 67.4995V60.8711H331.984V67.4995H330.678ZM331.337 59.8457C330.885 59.8457 330.507 59.5039 330.507 59.0767C330.507 58.6494 330.885 58.3076 331.337 58.3076C331.777 58.3076 332.155 58.6494 332.155 59.0767C332.155 59.5039 331.777 59.8457 331.337 59.8457ZM337.297 60.8711V61.9087H335.942V65.5464C335.942 66.291 336.32 66.4253 336.735 66.4375C336.918 66.4375 337.211 66.4131 337.394 66.4009V67.5361C337.211 67.5605 336.93 67.585 336.576 67.585C335.551 67.585 334.635 67.0234 334.648 65.8149V61.9087H333.671V60.8711H334.648V59.2842H335.942V60.8711H337.297ZM343.735 67.4995H342.306L345.48 58.6616H347.031L350.217 67.4995H348.788L347.983 65.168H344.54L343.735 67.4995ZM344.931 64.0449H347.592L346.286 60.2729H346.225L344.931 64.0449ZM351.855 69.9897V60.8711H353.124V61.9453H353.234C353.466 61.5303 353.918 60.7856 355.138 60.7856C356.738 60.7856 357.922 62.043 357.922 64.2036C357.922 66.3398 356.762 67.6338 355.151 67.6338C353.942 67.6338 353.466 66.9014 353.234 66.4619H353.161V69.9897H351.855ZM353.136 64.1792C353.136 65.5708 353.747 66.5229 354.858 66.5229C356.005 66.5229 356.603 65.5098 356.603 64.1792C356.603 62.873 356.017 61.8965 354.858 61.8965C353.735 61.8965 353.136 62.7998 353.136 64.1792ZM359.841 69.9897V60.8711H361.11V61.9453H361.22C361.452 61.5303 361.904 60.7856 363.124 60.7856C364.723 60.7856 365.907 62.043 365.907 64.2036C365.907 66.3398 364.748 67.6338 363.136 67.6338C361.928 67.6338 361.452 66.9014 361.22 66.4619H361.147V69.9897H359.841ZM361.122 64.1792C361.122 65.5708 361.733 66.5229 362.844 66.5229C363.991 66.5229 364.589 65.5098 364.589 64.1792C364.589 62.873 364.003 61.8965 362.844 61.8965C361.72 61.8965 361.122 62.7998 361.122 64.1792ZM367.826 67.4995V60.8711H369.084V61.9209H369.157C369.401 61.2129 370.06 60.7734 370.842 60.7734C371 60.7734 371.257 60.7856 371.391 60.7979V62.043C371.281 62.0186 370.976 61.9697 370.707 61.9697C369.804 61.9697 369.133 62.5923 369.133 63.459V67.4995H367.826ZM375.58 67.6338C373.7 67.6338 372.48 66.2666 372.48 64.2158C372.48 62.1528 373.7 60.7856 375.58 60.7856C377.448 60.7856 378.669 62.1528 378.669 64.2158C378.669 66.2666 377.448 67.6338 375.58 67.6338ZM375.58 66.5474C376.777 66.5474 377.35 65.4854 377.35 64.2158C377.35 62.9463 376.777 61.8599 375.58 61.8599C374.36 61.8599 373.786 62.9463 373.786 64.2158C373.786 65.4854 374.36 66.5474 375.58 66.5474ZM386.032 60.8711L383.627 67.4995H382.223L379.819 60.8711H381.222L382.895 65.9614H382.956L384.628 60.8711H386.032ZM387.206 65.6318C387.206 64.1182 388.488 63.7275 389.684 63.6421C390.124 63.6116 391.119 63.5566 391.43 63.5444L391.418 63.0195C391.418 62.2749 390.966 61.8354 390.075 61.8354C389.306 61.8354 388.842 62.1895 388.708 62.6777H387.414C387.536 61.5791 388.561 60.7856 390.124 60.7856C391.174 60.7856 392.724 61.1763 392.724 63.0928V67.4995H391.454V66.5962H391.406C391.149 67.0967 390.539 67.646 389.44 67.646C388.183 67.646 387.206 66.9258 387.206 65.6318ZM388.476 65.644C388.476 66.2788 389.001 66.6084 389.733 66.6084C390.795 66.6084 391.43 65.9004 391.43 65.1069V64.4966L389.867 64.6064C389.013 64.6675 388.476 64.9849 388.476 65.644ZM396.23 58.6616V67.4995H394.924V58.6616H396.23Z" fill="#6F6F6F"/>
</svg>
