<svg width="129" height="129" viewBox="0 0 129 129" fill="none" xmlns="http://www.w3.org/2000/svg">
<path d="M62.4887 0.228395C63.5122 0.0936402 64.549 0.0936401 65.5726 0.228395L79.061 2.00418C80.0846 2.13893 81.0861 2.40728 82.0399 2.80236L94.6091 8.00869C95.5629 8.40377 96.4608 8.92218 97.2799 9.55066L108.073 17.8327C108.892 18.4612 109.625 19.1944 110.254 20.0134L118.536 30.8068C119.165 31.6259 119.683 32.5238 120.078 33.4776L125.284 46.0468C125.679 47.0006 125.948 48.0021 126.083 49.0257L127.858 62.5141C127.993 63.5376 127.993 64.5744 127.858 65.598L126.083 79.0864C125.948 80.11 125.679 81.1115 125.284 82.0653L120.078 94.6345C119.683 95.5883 119.165 96.4862 118.536 97.3053L110.254 108.099C109.625 108.918 108.892 109.651 108.073 110.279L97.2799 118.561C96.4608 119.19 95.5629 119.708 94.6091 120.103L82.0399 125.31C81.0861 125.705 80.0846 125.973 79.061 126.108L65.5726 127.884C64.5491 128.018 63.5122 128.018 62.4887 127.884L49.0003 126.108C47.9767 125.973 46.9752 125.705 46.0214 125.31L33.4522 120.103C32.4984 119.708 31.6005 119.19 30.7814 118.561L19.988 110.279C19.169 109.651 18.4358 108.918 17.8074 108.099L9.52527 97.3052C8.89679 96.4862 8.37838 95.5883 7.9833 94.6345L2.77697 82.0653C2.38189 81.1115 2.11354 80.11 1.97879 79.0864L0.203004 65.598C0.0682496 64.5744 0.0682495 63.5376 0.203004 62.5141L1.97879 49.0257C2.11354 48.0021 2.38189 47.0006 2.77697 46.0468L7.9833 33.4776C8.37838 32.5238 8.89679 31.6259 9.52527 30.8068L17.8074 20.0134C18.4358 19.1944 19.169 18.4612 19.988 17.8327L30.7814 9.55066C31.6005 8.92218 32.4984 8.40377 33.4522 8.00869L46.0214 2.80236C46.9752 2.40728 47.9767 2.13893 49.0003 2.00418L62.4887 0.228395Z" fill="white"/>
<path d="M64.0297 32.4707C55.6559 32.4802 47.6278 35.8109 41.7067 41.732C35.7855 47.6532 32.4548 55.6813 32.4453 64.0551C34.1804 105.956 93.8853 105.944 95.6141 64.0548C95.6045 55.6811 92.2738 47.653 86.3526 41.7319C80.4314 35.8108 72.4034 32.4802 64.0297 32.4707V32.4707ZM64.0297 92.3147C56.5373 92.3062 49.3544 89.3261 44.0565 84.0282C38.7586 78.7304 35.7785 71.5474 35.77 64.0551C37.3226 26.5648 90.7424 26.5757 92.2894 64.0552C92.2808 71.5475 89.3007 78.7305 84.0028 84.0283C78.7049 89.3261 71.5219 92.3062 64.0297 92.3147V92.3147Z" fill="#049C6B"/>
<path d="M76.1531 52.5362L61.0746 67.6146L54.1227 60.6633C53.8095 60.359 53.3891 60.1903 52.9524 60.1935C52.5158 60.1966 52.0979 60.3715 51.7891 60.6803C51.4803 60.9891 51.3055 61.407 51.3023 61.8437C51.2991 62.2803 51.4679 62.7007 51.7721 63.014L59.8994 71.141C60.2123 71.4504 60.6346 71.624 61.0747 71.624C61.5148 71.624 61.9371 71.4504 62.25 71.141L78.5037 54.8867C78.8072 54.5733 78.9754 54.1532 78.9719 53.7169C78.9684 53.2806 78.7935 52.8632 78.485 52.5547C78.1765 52.2462 77.7591 52.0714 77.3228 52.0679C76.8866 52.0645 76.4664 52.2326 76.1531 52.5362Z" fill="#049C6B"/>
</svg>
