<svg width="448" height="100" viewBox="0 0 448 100" fill="none" xmlns="http://www.w3.org/2000/svg">
<rect width="448" height="100" rx="9.96575" fill="white"/>
<rect width="144.503" height="1.24572" transform="translate(59.7944 28.7563)" fill="#C6C6C6"/>
<rect width="144.503" height="1.24572" transform="translate(204.298 28.7559)" fill="#C6C6C6"/>
<rect x="48.2925" y="16.804" width="23.6687" height="23.6687" rx="11.8343" fill="white"/>
<rect x="48.2925" y="16.804" width="23.6687" height="23.6687" rx="11.8343" stroke="#31A05F" stroke-width="1.24572"/>
<circle cx="60.1272" cy="28.6384" r="2.49144" fill="#31A05F"/>
<path d="M31.3486 57.5884V48.7808H36.8716V49.9365H32.6867V52.6006H36.5796V53.7442H32.6867V56.4327H36.9202V57.5884H31.3486ZM40.3289 53.6712V57.5884H39.0272V50.9827H40.2803V52.0654H40.3533C40.6696 51.3598 41.3143 50.8975 42.2997 50.8975C43.6622 50.8975 44.5503 51.7491 44.5503 53.3914V57.5884H43.2607V53.5495C43.2607 52.5885 42.7376 52.0167 41.8617 52.0167C40.9737 52.0167 40.3289 52.6128 40.3289 53.6712ZM49.8446 50.9827V52.0167H48.4942V55.6419C48.4942 56.384 48.8713 56.5178 49.285 56.53C49.4674 56.53 49.7594 56.5057 49.9419 56.4935V57.6249C49.7594 57.6492 49.4796 57.6735 49.1268 57.6735C48.1049 57.6735 47.1925 57.1139 47.2047 55.9096V52.0167H46.2315V50.9827H47.2047V49.4012H48.4942V50.9827H49.8446ZM54.5063 57.7222C52.5598 57.7222 51.3677 56.384 51.3677 54.3281C51.3677 52.2965 52.5842 50.8975 54.4211 50.8975C55.9296 50.8975 57.3529 51.8342 57.3529 54.2186V54.6809H52.6572C52.6937 55.9339 53.4297 56.6517 54.5184 56.6517C55.2605 56.6517 55.735 56.3354 55.9539 55.9339H57.2678C56.9758 57.0044 55.9539 57.7222 54.5063 57.7222ZM52.6693 53.7077H56.0756C56.0756 52.698 55.4308 51.968 54.4333 51.968C53.3932 51.968 52.718 52.7709 52.6693 53.7077ZM59.2653 57.5884V50.9827H60.5183V52.0289H60.5913C60.8346 51.3233 61.4916 50.8853 62.2701 50.8853C62.4283 50.8853 62.6837 50.8975 62.8176 50.9097V52.1505C62.7081 52.1262 62.4039 52.0775 62.1363 52.0775C61.2361 52.0775 60.567 52.698 60.567 53.5617V57.5884H59.2653ZM69.5255 48.7808V57.5884H68.1873V48.7808H69.5255ZM73.1288 53.6712V57.5884H71.8271V50.9827H73.0801V52.0654H73.1531C73.4694 51.3598 74.1142 50.8975 75.0996 50.8975C76.4621 50.8975 77.3501 51.7491 77.3501 53.3914V57.5884H76.0606V53.5495C76.0606 52.5885 75.5375 52.0167 74.6616 52.0167C73.7736 52.0167 73.1288 52.6128 73.1288 53.6712ZM82.7053 50.9827V52.0167H81.2819V57.5884H79.9803V52.0167H78.9584V50.9827H79.9803V50.2163C79.9803 49.0362 80.7345 48.3671 81.951 48.3671C82.2673 48.3671 82.5836 48.4036 82.8391 48.4523V49.535C82.5958 49.4985 82.4133 49.4863 82.2917 49.4863C81.5982 49.4863 81.2819 49.7661 81.2819 50.4109V50.9827H82.7053ZM87.0385 57.7222C85.1651 57.7222 83.9486 56.3597 83.9486 54.3159C83.9486 52.26 85.1651 50.8975 87.0385 50.8975C88.8998 50.8975 90.1163 52.26 90.1163 54.3159C90.1163 56.3597 88.8998 57.7222 87.0385 57.7222ZM87.0385 56.6395C88.2307 56.6395 88.8025 55.5811 88.8025 54.3159C88.8025 53.0507 88.2307 51.968 87.0385 51.968C85.822 51.968 85.2502 53.0507 85.2502 54.3159C85.2502 55.5811 85.822 56.6395 87.0385 56.6395Z" fill="#6F6F6F"/>
<path d="M189.288 48.7808H190.626V54.5714C190.626 56.4205 189.239 57.7344 187.135 57.7344C185.006 57.7344 183.631 56.4205 183.631 54.5714V48.7808H184.969V54.4619C184.969 55.6541 185.797 56.5178 187.135 56.5178C188.461 56.5178 189.288 55.6541 189.288 54.4619V48.7808ZM192.94 60.0701V50.9827H194.205V52.0532H194.315C194.546 51.6396 194.996 50.8975 196.212 50.8975C197.806 50.8975 198.986 52.1505 198.986 54.3038C198.986 56.4327 197.83 57.7222 196.225 57.7222C195.02 57.7222 194.546 56.9923 194.315 56.5543H194.242V60.0701H192.94ZM194.217 54.2794C194.217 55.6663 194.826 56.6152 195.933 56.6152C197.076 56.6152 197.672 55.6054 197.672 54.2794C197.672 52.9778 197.088 52.0045 195.933 52.0045C194.813 52.0045 194.217 52.9048 194.217 54.2794ZM202.2 48.7808V57.5884H200.899V48.7808H202.2ZM207.203 57.7222C205.329 57.7222 204.113 56.3597 204.113 54.3159C204.113 52.26 205.329 50.8975 207.203 50.8975C209.064 50.8975 210.28 52.26 210.28 54.3159C210.28 56.3597 209.064 57.7222 207.203 57.7222ZM207.203 56.6395C208.395 56.6395 208.967 55.5811 208.967 54.3159C208.967 53.0507 208.395 51.968 207.203 51.968C205.986 51.968 205.414 53.0507 205.414 54.3159C205.414 55.5811 205.986 56.6395 207.203 56.6395ZM211.876 55.7271C211.876 54.2186 213.154 53.8293 214.346 53.7442C214.784 53.7138 215.775 53.659 216.086 53.6468L216.073 53.1237C216.073 52.3817 215.623 51.9437 214.735 51.9437C213.969 51.9437 213.507 52.2965 213.373 52.7831H212.083C212.205 51.6882 213.227 50.8975 214.784 50.8975C215.83 50.8975 217.375 51.2868 217.375 53.1967V57.5884H216.11V56.6882H216.061C215.806 57.1869 215.198 57.7344 214.103 57.7344C212.85 57.7344 211.876 57.0166 211.876 55.7271ZM213.142 55.7393C213.142 56.3719 213.665 56.7003 214.395 56.7003C215.453 56.7003 216.086 55.9947 216.086 55.204V54.5957L214.528 54.7052C213.677 54.766 213.142 55.0823 213.142 55.7393ZM222.037 57.7222C220.443 57.7222 219.275 56.4327 219.275 54.3038C219.275 52.1505 220.455 50.8975 222.049 50.8975C223.278 50.8975 223.728 51.6396 223.959 52.0532H224.02V48.7808H225.321V57.5884H224.056V56.5543H223.959C223.716 56.9923 223.241 57.7222 222.037 57.7222ZM222.329 56.6152C223.436 56.6152 224.056 55.6663 224.056 54.2794C224.056 52.9048 223.448 52.0045 222.329 52.0045C221.173 52.0045 220.601 52.9778 220.601 54.2794C220.601 55.6054 221.197 56.6152 222.329 56.6152Z" fill="#6F6F6F"/>
<rect x="192.463" y="16.805" width="23.6687" height="23.6687" rx="11.8343" fill="white"/>
<rect x="192.463" y="16.805" width="23.6687" height="23.6687" rx="11.8343" stroke="#C6C6C6" stroke-width="1.24572"/>
<rect x="336.967" y="16.805" width="23.6687" height="23.6687" rx="11.8343" fill="white"/>
<rect x="336.967" y="16.805" width="23.6687" height="23.6687" rx="11.8343" stroke="#C6C6C6" stroke-width="1.24572"/>
<path d="M304.078 57.5884H302.655L305.818 48.7808H307.363L310.538 57.5884H309.114L308.312 55.2648H304.881L304.078 57.5884ZM305.27 54.1456H307.922L306.621 50.3866H306.56L305.27 54.1456ZM312.766 57.5884L310.832 50.9827H312.17L313.46 55.8244H313.533L314.822 50.9827H316.161L317.438 55.8001H317.511L318.788 50.9827H320.126L318.192 57.5884H316.866L315.528 52.8318H315.431L314.105 57.5884H312.766ZM321.516 55.7271C321.516 54.2186 322.793 53.8293 323.985 53.7442C324.423 53.7138 325.415 53.659 325.725 53.6468L325.713 53.1237C325.713 52.3817 325.263 51.9437 324.374 51.9437C323.608 51.9437 323.146 52.2965 323.012 52.7831H321.722C321.844 51.6882 322.866 50.8975 324.423 50.8975C325.469 50.8975 327.014 51.2868 327.014 53.1967V57.5884H325.749V56.6882H325.7C325.445 57.1869 324.837 57.7344 323.742 57.7344C322.489 57.7344 321.516 57.0166 321.516 55.7271ZM322.781 55.7393C322.781 56.3719 323.304 56.7003 324.034 56.7003C325.092 56.7003 325.725 55.9947 325.725 55.204V54.5957L324.168 54.7052C323.316 54.766 322.781 55.0823 322.781 55.7393ZM329.207 57.5884V50.9827H330.508V57.5884H329.207ZM329.863 49.9608C329.413 49.9608 329.036 49.6202 329.036 49.1944C329.036 48.7686 329.413 48.428 329.863 48.428C330.301 48.428 330.678 48.7686 330.678 49.1944C330.678 49.6202 330.301 49.9608 329.863 49.9608ZM335.802 50.9827V52.0167H334.452V55.6419C334.452 56.384 334.829 56.5178 335.243 56.53C335.425 56.53 335.717 56.5057 335.9 56.4935V57.6249C335.717 57.6492 335.438 57.6735 335.085 57.6735C334.063 57.6735 333.15 57.1139 333.163 55.9096V52.0167H332.189V50.9827H333.163V49.4012H334.452V50.9827H335.802ZM342.218 57.5884H340.795L343.958 48.7808H345.503L348.678 57.5884H347.255L346.452 55.2648H343.021L342.218 57.5884ZM343.411 54.1456H346.063L344.761 50.3866H344.7L343.411 54.1456ZM350.311 60.0701V50.9827H351.576V52.0532H351.685C351.917 51.6396 352.367 50.8975 353.583 50.8975C355.177 50.8975 356.357 52.1505 356.357 54.3038C356.357 56.4327 355.201 57.7222 353.595 57.7222C352.391 57.7222 351.917 56.9923 351.685 56.5543H351.612V60.0701H350.311ZM351.588 54.2794C351.588 55.6663 352.196 56.6152 353.303 56.6152C354.447 56.6152 355.043 55.6054 355.043 54.2794C355.043 52.9778 354.459 52.0045 353.303 52.0045C352.184 52.0045 351.588 52.9048 351.588 54.2794ZM358.269 60.0701V50.9827H359.534V52.0532H359.644C359.875 51.6396 360.325 50.8975 361.542 50.8975C363.135 50.8975 364.315 52.1505 364.315 54.3038C364.315 56.4327 363.16 57.7222 361.554 57.7222C360.349 57.7222 359.875 56.9923 359.644 56.5543H359.571V60.0701H358.269ZM359.547 54.2794C359.547 55.6663 360.155 56.6152 361.262 56.6152C362.405 56.6152 363.002 55.6054 363.002 54.2794C363.002 52.9778 362.418 52.0045 361.262 52.0045C360.143 52.0045 359.547 52.9048 359.547 54.2794ZM366.228 57.5884V50.9827H367.481V52.0289H367.554C367.797 51.3233 368.454 50.8853 369.233 50.8853C369.391 50.8853 369.646 50.8975 369.78 50.9097V52.1505C369.67 52.1262 369.366 52.0775 369.099 52.0775C368.198 52.0775 367.529 52.698 367.529 53.5617V57.5884H366.228ZM373.955 57.7222C372.082 57.7222 370.865 56.3597 370.865 54.3159C370.865 52.26 372.082 50.8975 373.955 50.8975C375.816 50.8975 377.033 52.26 377.033 54.3159C377.033 56.3597 375.816 57.7222 373.955 57.7222ZM373.955 56.6395C375.147 56.6395 375.719 55.5811 375.719 54.3159C375.719 53.0507 375.147 51.968 373.955 51.968C372.739 51.968 372.167 53.0507 372.167 54.3159C372.167 55.5811 372.739 56.6395 373.955 56.6395ZM384.371 50.9827L381.974 57.5884H380.575L378.179 50.9827H379.578L381.244 56.0556H381.305L382.972 50.9827H384.371ZM385.541 55.7271C385.541 54.2186 386.819 53.8293 388.011 53.7442C388.449 53.7138 389.44 53.659 389.75 53.6468L389.738 53.1237C389.738 52.3817 389.288 51.9437 388.4 51.9437C387.634 51.9437 387.171 52.2965 387.038 52.7831H385.748C385.87 51.6882 386.892 50.8975 388.449 50.8975C389.495 50.8975 391.04 51.2868 391.04 53.1967V57.5884H389.775V56.6882H389.726C389.471 57.1869 388.862 57.7344 387.767 57.7344C386.514 57.7344 385.541 57.0166 385.541 55.7271ZM386.806 55.7393C386.806 56.3719 387.33 56.7003 388.059 56.7003C389.118 56.7003 389.75 55.9947 389.75 55.204V54.5957L388.193 54.7052C387.342 54.766 386.806 55.0823 386.806 55.7393ZM394.534 48.7808V57.5884H393.232V48.7808H394.534Z" fill="#6F6F6F"/>
</svg>
