<svg width="410" height="100" viewBox="0 0 410 100" fill="none" xmlns="http://www.w3.org/2000/svg">
<rect width="145" height="1.25" transform="translate(60 38.9998)" fill="#31A05F"/>
<rect width="134" height="1.25" transform="translate(205 38.9998)" fill="#31A05F"/>
<rect x="47.5" y="25.9998" width="25" height="25" rx="12.5" fill="#31A05F"/>
<path d="M58.8167 41.4832C58.65 41.4832 58.4917 41.4165 58.375 41.2998L56.0167 38.9415C55.775 38.6998 55.775 38.2998 56.0167 38.0582C56.2584 37.8165 56.6584 37.8165 56.9 38.0582L58.8167 39.9748L63.1 35.6915C63.3417 35.4498 63.7417 35.4498 63.9834 35.6915C64.225 35.9332 64.225 36.3332 63.9834 36.5748L59.2584 41.2998C59.1417 41.4165 58.9834 41.4832 58.8167 41.4832Z" fill="white"/>
<path d="M31.3511 67.5V58.6621H36.8931V59.8218H32.6938V62.4951H36.6001V63.6426H32.6938V66.3403H36.9419V67.5H31.3511ZM40.3623 63.5693V67.5H39.0562V60.8716H40.3135V61.958H40.3867C40.7041 61.25 41.3511 60.7861 42.3398 60.7861C43.707 60.7861 44.5981 61.6406 44.5981 63.2886V67.5H43.3042V63.4473C43.3042 62.4829 42.7793 61.9092 41.9004 61.9092C41.0093 61.9092 40.3623 62.5073 40.3623 63.5693ZM49.9106 60.8716V61.9092H48.5557V65.5469C48.5557 66.2915 48.9341 66.4258 49.3491 66.438C49.5322 66.438 49.8252 66.4136 50.0083 66.4014V67.5366C49.8252 67.561 49.5444 67.5854 49.1904 67.5854C48.165 67.5854 47.2495 67.0239 47.2617 65.8154V61.9092H46.2852V60.8716H47.2617V59.2847H48.5557V60.8716H49.9106ZM54.5884 67.6343C52.6353 67.6343 51.439 66.2915 51.439 64.2285C51.439 62.1899 52.6597 60.7861 54.5029 60.7861C56.0166 60.7861 57.4448 61.7261 57.4448 64.1187V64.5825H52.7329C52.7695 65.8398 53.5081 66.5601 54.6006 66.5601C55.3452 66.5601 55.8213 66.2427 56.041 65.8398H57.3594C57.0664 66.9141 56.041 67.6343 54.5884 67.6343ZM52.7451 63.606H56.1631C56.1631 62.5928 55.5161 61.8604 54.5151 61.8604C53.4714 61.8604 52.7939 62.666 52.7451 63.606ZM59.3638 67.5V60.8716H60.6211V61.9214H60.6943C60.9385 61.2134 61.5977 60.7739 62.3789 60.7739C62.5376 60.7739 62.7939 60.7861 62.9282 60.7983V62.0435C62.8184 62.019 62.5132 61.9702 62.2446 61.9702C61.3413 61.9702 60.6699 62.5928 60.6699 63.4595V67.5H59.3638ZM69.6592 58.6621V67.5H68.3164V58.6621H69.6592ZM73.2749 63.5693V67.5H71.9687V60.8716H73.2261V61.958H73.2993C73.6167 61.25 74.2637 60.7861 75.2524 60.7861C76.6196 60.7861 77.5107 61.6406 77.5107 63.2886V67.5H76.2168V63.4473C76.2168 62.4829 75.6919 61.9092 74.813 61.9092C73.9219 61.9092 73.2749 62.5073 73.2749 63.5693ZM82.8843 60.8716V61.9092H81.4561V67.5H80.1499V61.9092H79.1245V60.8716H80.1499V60.1025C80.1499 58.9185 80.9067 58.2471 82.1274 58.2471C82.4448 58.2471 82.7622 58.2837 83.0186 58.3325V59.4189C82.7744 59.3823 82.5913 59.3701 82.4692 59.3701C81.7734 59.3701 81.4561 59.6509 81.4561 60.2979V60.8716H82.8843ZM87.2324 67.6343C85.3525 67.6343 84.1318 66.2671 84.1318 64.2163C84.1318 62.1533 85.3525 60.7861 87.2324 60.7861C89.1001 60.7861 90.3208 62.1533 90.3208 64.2163C90.3208 66.2671 89.1001 67.6343 87.2324 67.6343ZM87.2324 66.5479C88.4287 66.5479 89.0024 65.4858 89.0024 64.2163C89.0024 62.9468 88.4287 61.8604 87.2324 61.8604C86.0117 61.8604 85.438 62.9468 85.438 64.2163C85.438 65.4858 86.0117 66.5479 87.2324 66.5479Z" fill="#6F6F6F"/>
<rect x="192.5" y="25.9998" width="25" height="25" rx="12.5" fill="#31A05F"/>
<path d="M203.816 41.4832C203.65 41.4832 203.491 41.4165 203.375 41.2998L201.016 38.9415C200.775 38.6998 200.775 38.2998 201.016 38.0582C201.258 37.8165 201.658 37.8165 201.9 38.0582L203.816 39.9748L208.1 35.6915C208.341 35.4498 208.741 35.4498 208.983 35.6915C209.225 35.9332 209.225 36.3332 208.983 36.5748L204.258 41.2998C204.141 41.4165 203.983 41.4832 203.816 41.4832Z" fill="white"/>
<path d="M189.863 58.6621H191.206V64.4727C191.206 66.3281 189.814 67.6465 187.702 67.6465C185.566 67.6465 184.187 66.3281 184.187 64.4727V58.6621H185.53V64.3628C185.53 65.5591 186.36 66.4258 187.702 66.4258C189.033 66.4258 189.863 65.5591 189.863 64.3628V58.6621ZM193.528 69.9902V60.8716H194.797V61.9458H194.907C195.139 61.5308 195.591 60.7861 196.811 60.7861C198.41 60.7861 199.594 62.0435 199.594 64.2041C199.594 66.3403 198.435 67.6343 196.823 67.6343C195.615 67.6343 195.139 66.9019 194.907 66.4624H194.834V69.9902H193.528ZM194.809 64.1797C194.809 65.5713 195.42 66.5234 196.531 66.5234C197.678 66.5234 198.276 65.5103 198.276 64.1797C198.276 62.8735 197.69 61.897 196.531 61.897C195.407 61.897 194.809 62.8003 194.809 64.1797ZM202.82 58.6621V67.5H201.513V58.6621H202.82ZM207.839 67.6343C205.959 67.6343 204.739 66.2671 204.739 64.2163C204.739 62.1533 205.959 60.7861 207.839 60.7861C209.707 60.7861 210.927 62.1533 210.927 64.2163C210.927 66.2671 209.707 67.6343 207.839 67.6343ZM207.839 66.5479C209.035 66.5479 209.609 65.4858 209.609 64.2163C209.609 62.9468 209.035 61.8604 207.839 61.8604C206.618 61.8604 206.045 62.9468 206.045 64.2163C206.045 65.4858 206.618 66.5479 207.839 66.5479ZM212.529 65.6323C212.529 64.1187 213.811 63.728 215.007 63.6426C215.447 63.6121 216.441 63.5571 216.753 63.5449L216.74 63.02C216.74 62.2754 216.289 61.8359 215.398 61.8359C214.629 61.8359 214.165 62.1899 214.031 62.6782H212.737C212.859 61.5796 213.884 60.7861 215.447 60.7861C216.496 60.7861 218.047 61.1768 218.047 63.0933V67.5H216.777V66.5967H216.728C216.472 67.0972 215.862 67.6465 214.763 67.6465C213.506 67.6465 212.529 66.9263 212.529 65.6323ZM213.799 65.6445C213.799 66.2793 214.323 66.6089 215.056 66.6089C216.118 66.6089 216.753 65.9009 216.753 65.1074V64.4971L215.19 64.6069C214.336 64.668 213.799 64.9854 213.799 65.6445ZM222.724 67.6343C221.125 67.6343 219.953 66.3403 219.953 64.2041C219.953 62.0435 221.137 60.7861 222.737 60.7861C223.969 60.7861 224.421 61.5308 224.653 61.9458H224.714V58.6621H226.02V67.5H224.751V66.4624H224.653C224.409 66.9019 223.933 67.6343 222.724 67.6343ZM223.017 66.5234C224.128 66.5234 224.751 65.5713 224.751 64.1797C224.751 62.8003 224.14 61.897 223.017 61.897C221.858 61.897 221.284 62.8735 221.284 64.1797C221.284 65.5103 221.882 66.5234 223.017 66.5234Z" fill="#6F6F6F"/>
<path d="M305.463 67.5H304.035L307.209 58.6621H308.759L311.945 67.5H310.517L309.711 65.1685H306.269L305.463 67.5ZM306.659 64.0454H309.321L308.014 60.2734H307.953L306.659 64.0454ZM314.181 67.5L312.24 60.8716H313.583L314.877 65.73H314.95L316.244 60.8716H317.587L318.869 65.7056H318.942L320.224 60.8716H321.567L319.626 67.5H318.295L316.952 62.7271H316.855L315.524 67.5H314.181ZM322.961 65.6323C322.961 64.1187 324.242 63.728 325.439 63.6426C325.878 63.6121 326.873 63.5571 327.184 63.5449L327.172 63.02C327.172 62.2754 326.72 61.8359 325.829 61.8359C325.06 61.8359 324.596 62.1899 324.462 62.6782H323.168C323.29 61.5796 324.316 60.7861 325.878 60.7861C326.928 60.7861 328.478 61.1768 328.478 63.0933V67.5H327.209V66.5967H327.16C326.904 67.0972 326.293 67.6465 325.195 67.6465C323.937 67.6465 322.961 66.9263 322.961 65.6323ZM324.23 65.6445C324.23 66.2793 324.755 66.6089 325.488 66.6089C326.55 66.6089 327.184 65.9009 327.184 65.1074V64.4971L325.622 64.6069C324.767 64.668 324.23 64.9854 324.23 65.6445ZM330.678 67.5V60.8716H331.984V67.5H330.678ZM331.337 59.8462C330.885 59.8462 330.507 59.5044 330.507 59.0771C330.507 58.6499 330.885 58.3081 331.337 58.3081C331.777 58.3081 332.155 58.6499 332.155 59.0771C332.155 59.5044 331.777 59.8462 331.337 59.8462ZM337.297 60.8716V61.9092H335.942V65.5469C335.942 66.2915 336.32 66.4258 336.735 66.438C336.918 66.438 337.211 66.4136 337.394 66.4014V67.5366C337.211 67.561 336.93 67.5854 336.576 67.5854C335.551 67.5854 334.635 67.0239 334.648 65.8154V61.9092H333.671V60.8716H334.648V59.2847H335.942V60.8716H337.297ZM343.735 67.5H342.306L345.48 58.6621H347.031L350.217 67.5H348.788L347.983 65.1685H344.54L343.735 67.5ZM344.931 64.0454H347.592L346.286 60.2734H346.225L344.931 64.0454ZM351.855 69.9902V60.8716H353.124V61.9458H353.234C353.466 61.5308 353.918 60.7861 355.138 60.7861C356.738 60.7861 357.922 62.0435 357.922 64.2041C357.922 66.3403 356.762 67.6343 355.151 67.6343C353.942 67.6343 353.466 66.9019 353.234 66.4624H353.161V69.9902H351.855ZM353.136 64.1797C353.136 65.5713 353.747 66.5234 354.858 66.5234C356.005 66.5234 356.603 65.5103 356.603 64.1797C356.603 62.8735 356.017 61.897 354.858 61.897C353.735 61.897 353.136 62.8003 353.136 64.1797ZM359.841 69.9902V60.8716H361.11V61.9458H361.22C361.452 61.5308 361.904 60.7861 363.124 60.7861C364.723 60.7861 365.907 62.0435 365.907 64.2041C365.907 66.3403 364.748 67.6343 363.136 67.6343C361.928 67.6343 361.452 66.9019 361.22 66.4624H361.147V69.9902H359.841ZM361.122 64.1797C361.122 65.5713 361.733 66.5234 362.844 66.5234C363.991 66.5234 364.589 65.5103 364.589 64.1797C364.589 62.8735 364.003 61.897 362.844 61.897C361.72 61.897 361.122 62.8003 361.122 64.1797ZM367.826 67.5V60.8716H369.084V61.9214H369.157C369.401 61.2134 370.06 60.7739 370.842 60.7739C371 60.7739 371.257 60.7861 371.391 60.7983V62.0435C371.281 62.019 370.976 61.9702 370.707 61.9702C369.804 61.9702 369.133 62.5928 369.133 63.4595V67.5H367.826ZM375.58 67.6343C373.7 67.6343 372.48 66.2671 372.48 64.2163C372.48 62.1533 373.7 60.7861 375.58 60.7861C377.448 60.7861 378.669 62.1533 378.669 64.2163C378.669 66.2671 377.448 67.6343 375.58 67.6343ZM375.58 66.5479C376.777 66.5479 377.35 65.4858 377.35 64.2163C377.35 62.9468 376.777 61.8604 375.58 61.8604C374.36 61.8604 373.786 62.9468 373.786 64.2163C373.786 65.4858 374.36 66.5479 375.58 66.5479ZM386.032 60.8716L383.627 67.5H382.223L379.819 60.8716H381.222L382.895 65.9619H382.956L384.628 60.8716H386.032ZM387.206 65.6323C387.206 64.1187 388.488 63.728 389.684 63.6426C390.124 63.6121 391.119 63.5571 391.43 63.5449L391.418 63.02C391.418 62.2754 390.966 61.8359 390.075 61.8359C389.306 61.8359 388.842 62.1899 388.708 62.6782H387.414C387.536 61.5796 388.561 60.7861 390.124 60.7861C391.174 60.7861 392.724 61.1768 392.724 63.0933V67.5H391.454V66.5967H391.406C391.149 67.0972 390.539 67.6465 389.44 67.6465C388.183 67.6465 387.206 66.9263 387.206 65.6323ZM388.476 65.6445C388.476 66.2793 389.001 66.6089 389.733 66.6089C390.795 66.6089 391.43 65.9009 391.43 65.1074V64.4971L389.867 64.6069C389.013 64.668 388.476 64.9854 388.476 65.6445ZM396.23 58.6621V67.5H394.924V58.6621H396.23Z" fill="#6F6F6F"/>
<rect x="338.625" y="27.625" width="23.75" height="23.75" rx="11.875" stroke="#31A05F" stroke-width="1.25"/>
<circle cx="350.5" cy="39.5" r="2.5" fill="#31A05F"/>
</svg>
